<svg width="16" height="16" viewBox="0 0 16 16" fill="none" xmlns="http://www.w3.org/2000/svg">
<g clip-path="url(#clip0_8730_2019)">
<path d="M7.55556 0.444336H0V15.111H7.55556V0.444336Z" fill="#307CFE" stroke="black" stroke-width="0.3" stroke-miterlimit="10" stroke-linecap="round" stroke-linejoin="round"/>
<path d="M0.666775 2L3.55566 2V1.33333L0.666775 1.33333V2Z" fill="white" stroke="#231F20" stroke-width="0.3" stroke-miterlimit="10"/>
<path d="M4.00003 2L6.88892 2V1.33333L4.00003 1.33333V2Z" fill="white" stroke="#231F20" stroke-width="0.3" stroke-miterlimit="10"/>
<path d="M0.666775 3.55566L3.55566 3.55566V2.889L0.666775 2.889V3.55566Z" fill="white" stroke="#231F20" stroke-width="0.3" stroke-miterlimit="10"/>
<path d="M4.00003 3.55566L6.88892 3.55566V2.889L4.00003 2.889V3.55566Z" fill="white" stroke="#231F20" stroke-width="0.3" stroke-miterlimit="10"/>
<path d="M0.666775 5.11133L3.55566 5.11133V4.44466L0.666775 4.44466V5.11133Z" fill="white" stroke="#231F20" stroke-width="0.3" stroke-miterlimit="10"/>
<path d="M4.00003 5.11133L6.88892 5.11133V4.44466L4.00003 4.44466V5.11133Z" fill="white" stroke="#231F20" stroke-width="0.3" stroke-miterlimit="10"/>
<path d="M0.666775 6.66699L3.55566 6.66699V6.00033L0.666775 6.00033V6.66699Z" fill="white" stroke="#231F20" stroke-width="0.3" stroke-miterlimit="10"/>
<path d="M4.00003 6.66699L6.88892 6.66699V6.00033L4.00003 6.00033V6.66699Z" fill="white" stroke="#231F20" stroke-width="0.3" stroke-miterlimit="10"/>
<path d="M0.666775 8.22217H3.55566V7.5555L0.666775 7.5555V8.22217Z" fill="white" stroke="#231F20" stroke-width="0.3" stroke-miterlimit="10"/>
<path d="M4.00003 8.22217H6.88892V7.5555L4.00003 7.5555V8.22217Z" fill="white" stroke="#231F20" stroke-width="0.3" stroke-miterlimit="10"/>
<path d="M0.666775 9.77783H3.55566V9.11117H0.666775V9.77783Z" fill="white" stroke="#231F20" stroke-width="0.3" stroke-miterlimit="10"/>
<path d="M4.00003 9.77783H6.88892V9.11117H4.00003V9.77783Z" fill="white" stroke="#231F20" stroke-width="0.3" stroke-miterlimit="10"/>
<path d="M0.666775 11.3335H3.55566V10.6668H0.666775V11.3335Z" fill="white" stroke="#231F20" stroke-width="0.3" stroke-miterlimit="10"/>
<path d="M4.00003 11.3335H6.88892V10.6668H4.00003V11.3335Z" fill="white" stroke="#231F20" stroke-width="0.3" stroke-miterlimit="10"/>
<path d="M0.666775 12.8892H3.55566V12.2225H0.666775V12.8892Z" fill="white" stroke="#231F20" stroke-width="0.3" stroke-miterlimit="10"/>
<path d="M4.00003 12.8892H6.88892V12.2225H4.00003V12.8892Z" fill="white" stroke="#231F20" stroke-width="0.3" stroke-miterlimit="10"/>
<path d="M0.666775 14.4448H3.55566V13.7782H0.666775V14.4448Z" fill="white" stroke="#231F20" stroke-width="0.3" stroke-miterlimit="10"/>
<path d="M4.00003 14.4448H6.88892V13.7782H4.00003V14.4448Z" fill="white" stroke="#231F20" stroke-width="0.3" stroke-miterlimit="10"/>
<path d="M11.6475 10.0306V7.42035C11.6475 7.35712 11.6739 7.2983 11.7195 7.25271C11.765 7.20859 11.8282 7.18359 11.8928 7.18359H13.4486C13.4868 7.18359 13.525 7.19242 13.5588 7.20859C13.5926 7.22477 13.6219 7.24977 13.6455 7.27918L14.6312 8.55415L14.9588 8.66003C15.0176 8.67914 15.0675 8.71885 15.0969 8.77179L15.2615 9.40118C15.3041 9.47765 15.2468 9.52324 15.3364 9.52324C15.401 9.52324 15.4642 9.54824 15.5097 9.59235C15.5553 9.63647 15.5817 9.69676 15.5817 9.76V10.3806C15.5817 10.6041 15.5333 10.7864 15.3011 10.7864H13.3223V11.0541H11.5373V11.3232H6.46301V10.7056H5.41113V10.007L11.6475 10.0306Z" fill="#307CFE" stroke="#231F20" stroke-width="0.3" stroke-miterlimit="10"/>
<path d="M13.4838 7.60113L13.8482 8.07612C13.8864 8.12611 13.9084 8.18347 13.9143 8.24523C13.9201 8.30699 13.9069 8.36728 13.879 8.42169C13.8496 8.4761 13.8055 8.52169 13.7527 8.55404C13.6998 8.5864 13.6366 8.60257 13.572 8.60257H12.4202C12.3291 8.60257 12.2424 8.56728 12.1778 8.50552C12.1131 8.44375 12.0764 8.35993 12.0764 8.2717V7.7923C12.0764 7.74818 12.0852 7.70554 12.1029 7.66583C12.1205 7.62613 12.1455 7.58936 12.1778 7.55848C12.2101 7.5276 12.2483 7.5026 12.2894 7.48643C12.332 7.47025 12.3761 7.46143 12.4217 7.46143L13.2091 7.46584C13.2635 7.46584 13.3163 7.4776 13.3648 7.50113C13.4104 7.52613 13.4515 7.55995 13.4838 7.60113Z" fill="#183E7F" stroke="#231F20" stroke-width="0.3" stroke-miterlimit="10"/>
<path d="M7.11092 12.0161C7.68387 12.0161 8.14958 11.5675 8.14958 11.0161C8.14958 10.4632 7.68534 10.0161 7.11092 10.0161C6.53797 10.0161 6.07227 10.4646 6.07227 11.0161C6.07227 11.569 6.53797 12.0161 7.11092 12.0161Z" fill="#183E7F" stroke="#231F20" stroke-width="0.3" stroke-miterlimit="10"/>
<path d="M7.11083 11.582C7.43551 11.582 7.69848 11.3291 7.69848 11.0159C7.69848 10.7026 7.43551 10.4497 7.11083 10.4497C6.78616 10.4497 6.52319 10.7026 6.52319 11.0159C6.52319 11.3291 6.78616 11.582 7.11083 11.582Z" fill="#307CFE" stroke="#231F20" stroke-width="0.3" stroke-miterlimit="10"/>
<path d="M13.7188 12.0161C14.2918 12.0161 14.7575 11.5675 14.7575 11.0161C14.7575 10.4632 14.2918 10.0161 13.7188 10.0161C13.1459 10.0161 12.6802 10.4646 12.6802 11.0161C12.6802 11.569 13.1444 12.0161 13.7188 12.0161Z" fill="#183E7F" stroke="#231F20" stroke-width="0.3" stroke-miterlimit="10"/>
<path d="M13.719 11.582C14.0437 11.582 14.3066 11.3291 14.3066 11.0159C14.3066 10.7026 14.0437 10.4497 13.719 10.4497C13.3943 10.4497 13.1313 10.7026 13.1313 11.0159C13.1313 11.3291 13.3943 11.582 13.719 11.582Z" fill="#307CFE" stroke="#231F20" stroke-width="0.3" stroke-miterlimit="10"/>
<path d="M11.5799 6.22217V9.36914L11.4611 10.0044H2.34101L2.22217 9.36914V6.22217H11.5799Z" fill="white" stroke="#231F20" stroke-width="0.3" stroke-miterlimit="10" stroke-linejoin="round"/>
<path d="M3.74525 9.32214H3.46795C3.40633 9.32214 3.35791 9.28979 3.35791 9.24861V6.91044C3.35791 6.86927 3.40633 6.83691 3.46795 6.83691H3.74525C3.80687 6.83691 3.85529 6.86927 3.85529 6.91044V9.24861C3.85529 9.28979 3.80687 9.32214 3.74525 9.32214Z" fill="#307CFE" stroke="#231F20" stroke-width="0.3" stroke-miterlimit="10"/>
<path d="M5.39149 9.32214H5.11419C5.05257 9.32214 5.00415 9.28979 5.00415 9.24861V6.91044C5.00415 6.86927 5.05257 6.83691 5.11419 6.83691H5.39149C5.45311 6.83691 5.50153 6.86927 5.50153 6.91044V9.24861C5.50153 9.28979 5.45311 9.32214 5.39149 9.32214Z" fill="#307CFE" stroke="#231F20" stroke-width="0.3" stroke-miterlimit="10"/>
<path d="M7.03993 9.32214H6.76263C6.70101 9.32214 6.65259 9.28979 6.65259 9.24861V6.91044C6.65259 6.86927 6.70101 6.83691 6.76263 6.83691H7.03993C7.10155 6.83691 7.14996 6.86927 7.14996 6.91044V9.24861C7.14996 9.28979 7.10155 9.32214 7.03993 9.32214Z" fill="#307CFE" stroke="#231F20" stroke-width="0.3" stroke-miterlimit="10"/>
<path d="M8.68836 9.32214H8.41106C8.34944 9.32214 8.30103 9.28979 8.30103 9.24861V6.91044C8.30103 6.86927 8.34944 6.83691 8.41106 6.83691H8.68836C8.74999 6.83691 8.7984 6.86927 8.7984 6.91044V9.24861C8.7984 9.28979 8.74778 9.32214 8.68836 9.32214Z" fill="#307CFE" stroke="#231F20" stroke-width="0.3" stroke-miterlimit="10"/>
<path d="M10.3344 9.32214H10.0571C9.99544 9.32214 9.94702 9.28979 9.94702 9.24861V6.91044C9.94702 6.86927 9.99544 6.83691 10.0571 6.83691H10.3344C10.396 6.83691 10.4444 6.86927 10.4444 6.91044V9.24861C10.4444 9.28979 10.396 9.32214 10.3344 9.32214Z" fill="#307CFE" stroke="#231F20" stroke-width="0.3" stroke-miterlimit="10"/>
<path d="M8.81115 11.7396V9.329C8.81115 9.27061 8.83557 9.21628 8.87763 9.17418C8.91969 9.13344 8.97803 9.11035 9.03772 9.11035H10.4745C10.5098 9.11035 10.5451 9.1185 10.5763 9.13344C10.6075 9.14838 10.6346 9.17147 10.6563 9.19863L11.5667 10.3761L11.8693 10.4739C11.9235 10.4915 11.9697 10.5282 11.9968 10.5771L12.1487 11.1583C12.1881 11.229 12.1352 11.2711 12.2179 11.2711C12.2776 11.2711 12.336 11.2941 12.378 11.3349C12.4201 11.3756 12.4445 11.4313 12.4445 11.4897V12.0628C12.4445 12.2692 12.3997 12.4377 12.1854 12.4377H10.3578H10.008H8.58458H7.7839L4.13636 12.4926L4.02319 12.363H3.05176V11.7179L8.81115 11.7396Z" fill="#307CFE" stroke="#231F20" stroke-width="0.3" stroke-miterlimit="10"/>
<path d="M10.507 9.49621L10.8435 9.93486C10.8788 9.98104 10.8991 10.034 10.9046 10.091C10.91 10.1481 10.8978 10.2038 10.872 10.254C10.8449 10.3043 10.8042 10.3464 10.7553 10.3762C10.7065 10.4061 10.6481 10.4211 10.5884 10.4211H9.52475C9.44064 10.4211 9.36059 10.3885 9.30089 10.3314C9.24119 10.2744 9.20728 10.197 9.20728 10.1155V9.67276C9.20728 9.63201 9.21542 9.59263 9.2317 9.55596C9.24798 9.51929 9.27104 9.48534 9.30089 9.45682C9.33074 9.4283 9.36601 9.40521 9.404 9.39028C9.44335 9.37534 9.48405 9.36719 9.52611 9.36719L10.2533 9.37126C10.3035 9.37126 10.3524 9.38213 10.3971 9.40386C10.4392 9.42694 10.4772 9.45818 10.507 9.49621Z" fill="white" stroke="#231F20" stroke-width="0.3" stroke-miterlimit="10"/>
<path d="M4.62133 13.5731C5.15046 13.5731 5.58055 13.1588 5.58055 12.6496C5.58055 12.1389 5.15182 11.7261 4.62133 11.7261C4.0922 11.7261 3.66211 12.1403 3.66211 12.6496C3.66211 13.1602 4.0922 13.5731 4.62133 13.5731Z" fill="#183E7F" stroke="#231F20" stroke-width="0.3" stroke-miterlimit="10"/>
<path d="M4.62156 13.1722C4.9214 13.1722 5.16425 12.9386 5.16425 12.6493C5.16425 12.3601 4.9214 12.1265 4.62156 12.1265C4.32171 12.1265 4.07886 12.3601 4.07886 12.6493C4.07886 12.9386 4.32171 13.1722 4.62156 13.1722Z" fill="#307CFE" stroke="#231F20" stroke-width="0.3" stroke-miterlimit="10"/>
<path d="M10.7241 13.5731C11.2532 13.5731 11.6833 13.1588 11.6833 12.6496C11.6833 12.1389 11.2532 11.7261 10.7241 11.7261C10.195 11.7261 9.76489 12.1403 9.76489 12.6496C9.76489 13.1602 10.1936 13.5731 10.7241 13.5731Z" fill="#183E7F" stroke="#231F20" stroke-width="0.3" stroke-miterlimit="10"/>
<path d="M10.7241 13.1722C11.0239 13.1722 11.2668 12.9386 11.2668 12.6493C11.2668 12.3601 11.0239 12.1265 10.7241 12.1265C10.4243 12.1265 10.1814 12.3601 10.1814 12.6493C10.1814 12.9386 10.4243 13.1722 10.7241 13.1722Z" fill="#307CFE" stroke="#231F20" stroke-width="0.3" stroke-miterlimit="10"/>
<path d="M8.57078 8.22217V11.1285V11.7152H0.767129L0.666748 11.1285V8.22217H8.57078Z" fill="#183E7F" stroke="#231F20" stroke-width="0.3" stroke-miterlimit="10" stroke-linejoin="round"/>
<path d="M1.95314 11.0847H1.71892C1.66687 11.0847 1.62598 11.0548 1.62598 11.0168V8.85745C1.62598 8.81943 1.66687 8.78955 1.71892 8.78955H1.95314C2.00519 8.78955 2.04609 8.81943 2.04609 8.85745V11.0168C2.04609 11.0548 2.00519 11.0847 1.95314 11.0847Z" fill="white" stroke="#231F20" stroke-width="0.3" stroke-miterlimit="10"/>
<path d="M3.34377 11.0847H3.10955C3.0575 11.0847 3.0166 11.0548 3.0166 11.0168V8.85745C3.0166 8.81943 3.0575 8.78955 3.10955 8.78955H3.34377C3.39582 8.78955 3.43671 8.81943 3.43671 8.85745V11.0168C3.43671 11.0548 3.39582 11.0847 3.34377 11.0847Z" fill="white" stroke="#231F20" stroke-width="0.3" stroke-miterlimit="10"/>
<path d="M4.7361 11.0847H4.50188C4.44983 11.0847 4.40894 11.0548 4.40894 11.0168V8.85745C4.40894 8.81943 4.44983 8.78955 4.50188 8.78955H4.7361C4.78815 8.78955 4.82905 8.81943 4.82905 8.85745V11.0168C4.82905 11.0548 4.78815 11.0847 4.7361 11.0847Z" fill="white" stroke="#231F20" stroke-width="0.3" stroke-miterlimit="10"/>
<path d="M6.12843 11.0847H5.89421C5.84217 11.0847 5.80127 11.0548 5.80127 11.0168V8.85745C5.80127 8.81943 5.84217 8.78955 5.89421 8.78955H6.12843C6.18048 8.78955 6.22138 8.81943 6.22138 8.85745V11.0168C6.22138 11.0548 6.17863 11.0847 6.12843 11.0847Z" fill="white" stroke="#231F20" stroke-width="0.3" stroke-miterlimit="10"/>
<path d="M7.51882 11.0847H7.2846C7.23255 11.0847 7.19165 11.0548 7.19165 11.0168V8.85745C7.19165 8.81943 7.23255 8.78955 7.2846 8.78955H7.51882C7.57086 8.78955 7.61176 8.81943 7.61176 8.85745V11.0168C7.61176 11.0548 7.57086 11.0847 7.51882 11.0847Z" fill="white" stroke="#231F20" stroke-width="0.3" stroke-miterlimit="10"/>
<path d="M6.348 13.9606V11.5202C6.348 11.4611 6.37273 11.4061 6.41531 11.3634C6.45788 11.3222 6.51695 11.2988 6.57738 11.2988H8.03196C8.06767 11.2988 8.10338 11.3071 8.13497 11.3222C8.16657 11.3373 8.19404 11.3607 8.21601 11.3882L9.13766 12.5802L9.44396 12.6792C9.4989 12.6971 9.5456 12.7342 9.57307 12.7837L9.7269 13.3722C9.76674 13.4437 9.71317 13.4863 9.79695 13.4863C9.85739 13.4863 9.91645 13.5097 9.95903 13.5509C10.0016 13.5921 10.0263 13.6485 10.0263 13.7076V14.2878C10.0263 14.4968 9.98101 14.6673 9.76399 14.6673H7.91383V14.9175H6.24499V15.1691H1.50079V14.5917H0.517334V13.9386L6.348 13.9606Z" fill="#FFC217" stroke="#231F20" stroke-width="0.3" stroke-miterlimit="10"/>
<path d="M8.06487 11.6892L8.40551 12.1333C8.44122 12.18 8.46182 12.2337 8.46732 12.2914C8.47281 12.3492 8.46045 12.4055 8.43436 12.4564C8.40688 12.5073 8.36568 12.5499 8.31623 12.5801C8.26678 12.6104 8.20772 12.6255 8.14729 12.6255H7.07043C6.98527 12.6255 6.90423 12.5925 6.8438 12.5348C6.78336 12.477 6.74902 12.3987 6.74902 12.3162V11.8679C6.74902 11.8267 6.75727 11.7868 6.77375 11.7497C6.79023 11.7126 6.81358 11.6782 6.8438 11.6493C6.87402 11.6205 6.90973 11.5971 6.94819 11.582C6.98802 11.5668 7.02923 11.5586 7.0718 11.5586L7.80802 11.5627C7.85884 11.5627 7.90829 11.5737 7.95362 11.5957C7.9962 11.6191 8.03466 11.6507 8.06487 11.6892Z" fill="white" stroke="#231F20" stroke-width="0.3" stroke-miterlimit="10"/>
<path d="M2.10634 15.8166C2.64202 15.8166 3.07744 15.3973 3.07744 14.8817C3.07744 14.3647 2.6434 13.9468 2.10634 13.9468C1.57066 13.9468 1.13525 14.3661 1.13525 14.8817C1.13525 15.3987 1.57066 15.8166 2.10634 15.8166Z" fill="#183E7F" stroke="#231F20" stroke-width="0.3" stroke-miterlimit="10"/>
<path d="M2.10654 15.4112C2.4101 15.4112 2.65596 15.1747 2.65596 14.8819C2.65596 14.589 2.4101 14.3525 2.10654 14.3525C1.80299 14.3525 1.55713 14.589 1.55713 14.8819C1.55713 15.1747 1.80299 15.4112 2.10654 15.4112Z" fill="#307CFE" stroke="#231F20" stroke-width="0.3" stroke-miterlimit="10"/>
<path d="M8.28457 15.8166C8.82025 15.8166 9.25566 15.3973 9.25566 14.8817C9.25566 14.3647 8.82025 13.9468 8.28457 13.9468C7.74889 13.9468 7.31348 14.3661 7.31348 14.8817C7.31348 15.3987 7.74752 15.8166 8.28457 15.8166Z" fill="#183E7F" stroke="#231F20" stroke-width="0.3" stroke-miterlimit="10"/>
<path d="M8.28452 15.4112C8.58807 15.4112 8.83394 15.1747 8.83394 14.8819C8.83394 14.589 8.58807 14.3525 8.28452 14.3525C7.98097 14.3525 7.73511 14.589 7.73511 14.8819C7.73511 15.1747 7.98097 15.4112 8.28452 15.4112Z" fill="#307CFE" stroke="#231F20" stroke-width="0.3" stroke-miterlimit="10"/>
<path d="M6.24019 10.3999V13.3422L6.16601 13.9361H0.474074L0.399902 13.3422V10.3999H6.24019Z" fill="#FFC217" stroke="#231F20" stroke-width="0.3" stroke-miterlimit="10" stroke-linejoin="round"/>
<path d="M1.39506 13.2982H1.222C1.18354 13.2982 1.15332 13.2679 1.15332 13.2294V11.0434C1.15332 11.0049 1.18354 10.9746 1.222 10.9746H1.39506C1.43352 10.9746 1.46374 11.0049 1.46374 11.0434V13.2294C1.46374 13.2679 1.43352 13.2982 1.39506 13.2982Z" fill="#BF9211" stroke="#231F20" stroke-width="0.3" stroke-miterlimit="10"/>
<path d="M2.42265 13.2982H2.24959C2.21113 13.2982 2.18091 13.2679 2.18091 13.2294V11.0434C2.18091 11.0049 2.21113 10.9746 2.24959 10.9746H2.42265C2.46111 10.9746 2.49133 11.0049 2.49133 11.0434V13.2294C2.49133 13.2679 2.46111 13.2982 2.42265 13.2982Z" fill="#BF9211" stroke="#231F20" stroke-width="0.3" stroke-miterlimit="10"/>
<path d="M3.45121 13.2982H3.27815C3.23969 13.2982 3.20947 13.2679 3.20947 13.2294V11.0434C3.20947 11.0049 3.23969 10.9746 3.27815 10.9746H3.45121C3.48967 10.9746 3.51989 11.0049 3.51989 11.0434V13.2294C3.51989 13.2679 3.48967 13.2982 3.45121 13.2982Z" fill="#BF9211" stroke="#231F20" stroke-width="0.3" stroke-miterlimit="10"/>
<path d="M4.48002 13.2982H4.30696C4.2685 13.2982 4.23828 13.2679 4.23828 13.2294V11.0434C4.23828 11.0049 4.2685 10.9746 4.30696 10.9746H4.48002C4.51848 10.9746 4.5487 11.0049 4.5487 11.0434V13.2294C4.5487 13.2679 4.51711 13.2982 4.48002 13.2982Z" fill="#BF9211" stroke="#231F20" stroke-width="0.3" stroke-miterlimit="10"/>
<path d="M5.50737 13.2982H5.3343C5.29584 13.2982 5.26562 13.2679 5.26562 13.2294V11.0434C5.26562 11.0049 5.29584 10.9746 5.3343 10.9746H5.50737C5.54583 10.9746 5.57604 11.0049 5.57604 11.0434V13.2294C5.57604 13.2679 5.54583 13.2982 5.50737 13.2982Z" fill="#BF9211" stroke="#231F20" stroke-width="0.3" stroke-miterlimit="10"/>
</g>
<defs>
<clipPath id="clip0_8730_2019">
<rect width="16" height="16" fill="white"/>
</clipPath>
</defs>
</svg>
