<svg width="16" height="16" viewBox="0 0 16 16" fill="none" xmlns="http://www.w3.org/2000/svg">
<g clip-path="url(#clip0_8730_7255)">
<path d="M4.7089 5.21347L5.42646 5.20924L5.4292 5.64619L5.18734 5.64775L5.20458 8.38955C5.20458 8.38955 5.20692 8.76152 4.73072 8.76461C4.25451 8.76769 4.253 8.39501 4.253 8.39501L4.23576 5.6532L3.99405 5.65479L3.99122 5.2179L4.7089 5.21347Z" fill="#176CF7" stroke="#231F20" stroke-width="0.5" stroke-linecap="round" stroke-linejoin="round"/>
<path d="M4.98477 1.15442L4.67458 1.15635L4.36458 1.15816C4.36458 1.15816 4.32384 1.6932 4.53471 1.89188L4.55595 5.2144L4.84519 5.21249L4.824 1.89006C5.03224 1.68871 4.98477 1.15442 4.98477 1.15442Z" fill="#FFC217" stroke="#231F20" stroke-width="0.5" stroke-linecap="round" stroke-linejoin="round"/>
<path d="M4.86471 5.7365L4.88069 8.23419" stroke="#231F20" stroke-width="0.5" stroke-linecap="round" stroke-linejoin="round"/>
<path d="M4.55938 5.74084L4.57538 8.23877" stroke="#231F20" stroke-width="0.5" stroke-linecap="round" stroke-linejoin="round"/>
<path d="M3.57129 3.90967V4.15967C3.57022 4.84204 3.56898 5.52528 3.56738 6.20752C3.56578 6.88957 3.56357 7.5715 3.5625 8.25342L3.5498 8.42432C3.52248 8.59462 3.44944 8.75929 3.30176 8.896L3.2998 8.89697C3.05588 9.11887 2.74616 9.18615 2.43066 9.05811V9.05713C2.12225 8.93317 1.93437 8.67507 1.91895 8.33838C1.90791 8.1139 1.91602 7.88139 1.91602 7.67822L1.9248 4.15869L1.92578 3.90967H3.57129ZM2.79004 8.23682C2.76287 8.20983 2.71752 8.20999 2.69141 8.23584C2.66414 8.26305 2.66228 8.30808 2.69043 8.33936C2.71857 8.36849 2.75971 8.3684 2.78711 8.34131C2.817 8.31173 2.81718 8.26603 2.79004 8.23682Z" fill="#176CF7" stroke="black" stroke-width="0.5"/>
<path d="M3.99219 2.88037H3.99316C3.99248 2.8822 3.99053 2.88749 3.98828 2.89307C3.98578 2.89925 3.98223 2.90803 3.97754 2.91748L3.87207 3.13037L3.6543 3.03467L3.49609 2.96631V2.96533L3.08496 2.78857V2.78955L2.93359 2.7251L2.70215 2.62646L2.80176 2.39502C2.91276 2.13867 3.02309 1.89756 3.12402 1.6499C3.14462 1.59816 3.17311 1.53984 3.21777 1.49072C3.26768 1.4359 3.34333 1.38651 3.44141 1.38135C3.53057 1.37674 3.60084 1.41103 3.64258 1.43701L3.74805 1.52295L3.75098 1.52588C4.11438 1.89704 4.21152 2.40254 3.99219 2.88037Z" fill="#176CF7" stroke="black" stroke-width="0.5"/>
<path d="M2.59399 2.50293C2.68645 2.48233 2.77644 2.49452 2.85962 2.52832L2.8606 2.52734L3.2229 2.68359L3.22974 2.68652V2.6875C3.42702 2.7849 3.52073 2.99125 3.47974 3.19434L3.45337 3.28125C3.41536 3.3758 3.37514 3.4676 3.33325 3.55859V3.55957C3.22416 3.79295 2.9667 3.88784 2.73267 3.79004C2.61666 3.74156 2.50318 3.69074 2.39282 3.6416L2.39087 3.64062C2.28117 3.59057 2.19208 3.5037 2.14673 3.38867C2.10144 3.27374 2.10761 3.14923 2.15259 3.03809V3.03711C2.19012 2.94599 2.23067 2.85571 2.26782 2.77051H2.2688C2.29248 2.71561 2.32824 2.66804 2.3313 2.66406L2.34888 2.63867L2.37231 2.61914C2.43053 2.56894 2.50415 2.52303 2.59399 2.50293Z" fill="#1256C6" stroke="black" stroke-width="0.5"/>
<path d="M2.54102 0.866211C2.6304 0.85394 2.7783 0.863701 2.87402 0.992188C2.96819 1.11876 2.93822 1.26158 2.90332 1.34375V1.34473C2.80355 1.57713 2.70232 1.80732 2.60254 2.03613L3.06738 2.24023L3.06934 2.24121L3.11523 2.25977L3.12695 2.26465L3.27832 2.3291L3.2793 2.33008L3.69238 2.50781H3.69336L3.85156 2.57715L3.86914 2.58398L3.88574 2.59473C3.91906 2.61583 3.96084 2.64338 3.99609 2.67578C4.031 2.70794 4.09047 2.77332 4.10352 2.87402C4.11665 2.97577 4.07487 3.05382 4.04785 3.09473C4.02086 3.1356 3.98577 3.17267 3.95801 3.20117C3.86567 3.29571 3.79048 3.37953 3.7334 3.46777L3.68262 3.55859C3.60648 3.7153 3.57324 3.88704 3.57324 4.07617V4.40723H1.9248V4.04785C1.92479 4.04411 1.9244 4.03848 1.92383 4.02637C1.92342 4.01773 1.92304 4.00398 1.92285 3.98926L1.90625 3.81738C1.87805 3.65091 1.81384 3.50107 1.70898 3.36328V3.3623C1.6711 3.31203 1.62771 3.26393 1.57617 3.20996C1.1031 2.71311 1.05975 2.03036 1.46191 1.47754C1.46302 1.47514 1.46356 1.47232 1.46484 1.46973L1.48242 1.43359L1.51172 1.4043C1.567 1.34864 1.62245 1.29296 1.67773 1.2373L1.69824 1.21582L1.72461 1.2002C1.7924 1.15855 1.90287 1.08311 2.00098 1.03027C2.17531 0.934974 2.36161 0.888278 2.54102 0.866211ZM2.62695 3.19727C2.71679 3.23725 2.80465 3.27686 2.89355 3.31445C2.92261 3.25039 2.95016 3.18659 2.97656 3.12207C2.88679 3.08137 2.79816 3.04206 2.70996 3.00586C2.68092 3.07216 2.65341 3.13418 2.62695 3.19727Z" fill="#FFC217" stroke="black" stroke-width="0.5"/>
<path d="M11.6743 10.8926L11.6724 10.8945V10.8955L11.6733 10.8975H13.0054C13.0066 10.8973 13.0097 10.8968 13.0132 10.8965L13.0181 10.8926H11.6743ZM14.9175 13.8408H14.6548C14.2592 13.8387 13.8652 13.8379 13.4692 13.8379L13.4204 13.8545C13.3042 13.8934 13.2194 14.0054 13.2192 14.1357V16.0273H4.57178V14.1357C4.57161 13.9715 4.43886 13.8408 4.27881 13.8408H2.87549V13.5908C2.87549 12.8052 2.84466 11.9852 2.8833 11.1807C2.92861 10.2366 3.43397 9.54446 4.28271 9.16406C4.92635 8.87495 5.61358 8.76355 6.26709 8.66504V8.66406C6.63379 8.57846 7.00898 8.54551 7.35303 8.50586L7.46729 8.49219L7.55127 8.57031C7.99466 8.97966 8.44782 9.39756 8.89307 9.80859C8.95246 9.75226 9.01242 9.69585 9.07178 9.63965C9.17807 9.53899 9.28375 9.43824 9.38916 9.33789L9.39404 9.33398C9.53509 9.20578 9.67678 9.07834 9.81787 8.95117C9.9592 8.82379 10.1005 8.69681 10.2407 8.56934L10.3237 8.49316L10.436 8.50586C11.0522 8.5732 11.6695 8.65897 12.2808 8.79395H12.2837L12.3091 8.79883C12.5853 8.8567 12.8665 8.92727 13.1411 9.02246H13.1401C13.2594 9.06325 13.3774 9.10876 13.4956 9.16211H13.4946C13.8036 9.30019 14.0699 9.48055 14.2856 9.7041L14.3755 9.80273L14.3853 9.81445L14.3911 9.82227L14.5132 9.98535C14.6269 10.1536 14.7163 10.337 14.7808 10.5352L14.7817 10.5381C14.8449 10.7387 14.8818 10.9518 14.894 11.1787V11.1816C14.9054 11.4471 14.9108 11.7168 14.9175 11.9766V13.8408Z" fill="#1256C6" stroke="black" stroke-width="0.5"/>
<path d="M8.86562 10.1238C8.82058 10.1872 8.74402 10.1917 8.68096 10.2144C8.42874 10.2981 8.17653 10.3864 7.92206 10.4566C7.48068 10.5789 7.16316 10.4453 6.93571 10.04C6.72628 9.6664 6.52811 9.28601 6.32544 8.90788C6.67449 8.82636 7.03029 8.79466 7.38385 8.75391C7.87702 9.21129 8.37245 9.6664 8.86562 10.1238Z" fill="#1256C6"/>
<path d="M13.3628 13.5884C13.3538 13.5975 13.3448 13.6088 13.3358 13.6179C13.1196 13.6903 12.9642 13.8941 12.9642 14.1364V15.778H4.819V14.1364C4.819 13.8352 4.57579 13.5907 4.27628 13.5907H3.12329C3.12329 12.7914 3.09176 11.9899 3.13005 11.1928C3.17058 10.3483 3.61421 9.73466 4.38212 9.39275C4.9969 9.11878 5.65897 9.01009 6.32104 8.9082C6.52371 9.28633 6.72188 9.66673 6.93131 10.0403C7.15875 10.4456 7.47628 10.5792 7.91766 10.457C8.17438 10.3868 8.42434 10.2985 8.67656 10.2147C8.74186 10.192 8.81618 10.1875 8.86122 10.1241H8.91526C8.94454 10.1445 8.96931 10.1717 9.00084 10.1807C9.3071 10.2781 9.61111 10.3777 9.91963 10.466C10.1763 10.5385 10.4173 10.4954 10.629 10.3279C10.7664 10.2192 10.8362 10.0562 10.9127 9.90448C10.9713 9.78674 11.0298 9.74598 11.1694 9.77768C11.4982 9.8524 11.8225 9.93844 12.1288 10.0766C12.4148 10.2056 12.6827 10.3732 12.8652 10.6426H11.6671C11.5973 10.6426 11.5365 10.6698 11.4915 10.7173C11.4464 10.7626 11.4172 10.826 11.4172 10.8962C11.4172 11.0321 11.5253 11.143 11.6604 11.1476C11.6626 11.1476 11.6649 11.1476 11.6671 11.1476H13.0138C13.0228 11.1476 13.034 11.1476 13.0431 11.1453C13.0903 11.1408 13.1331 11.1204 13.1692 11.0932C13.2592 11.3242 13.3583 11.5506 13.3606 11.8065C13.3651 12.3997 13.3628 12.9952 13.3628 13.5884Z" fill="#176CF7"/>
<path d="M14.6626 11.9827V12.2114C14.6626 12.6711 14.6626 13.1307 14.6626 13.5904H14.6513C14.2212 13.5904 13.7934 13.5904 13.3632 13.5881C13.3632 12.9926 13.3632 12.3994 13.3632 11.8039C13.3632 11.5503 13.2619 11.3216 13.1718 11.0906C13.1763 11.0861 13.1808 11.0816 13.1876 11.077L13.1943 11.0702C13.2394 11.025 13.2686 10.9616 13.2686 10.8936C13.2686 10.7555 13.1561 10.6423 13.0187 10.6423H12.8701C12.6854 10.3729 12.4197 10.2076 12.1337 10.0762C11.8274 9.93811 11.5031 9.85207 11.1744 9.77735C11.037 9.74565 10.9784 9.78641 10.9176 9.90415C10.8433 10.0559 10.7735 10.2166 10.6339 10.3276C10.4853 10.4453 10.3209 10.5019 10.1497 10.4997C10.1407 10.4997 10.134 10.4997 10.125 10.4997C10.0596 10.4974 9.99209 10.4861 9.92453 10.4657C9.61601 10.3774 9.312 10.2778 9.00574 10.1804C8.97421 10.1713 8.94944 10.1419 8.92017 10.1238C9.13185 9.92226 9.34578 9.72074 9.55746 9.51923C9.83896 9.26336 10.1227 9.00977 10.4042 8.75391C11.0257 8.8241 11.6428 8.90788 12.2508 9.04373C12.253 9.04373 12.253 9.04373 12.253 9.04373C12.5255 9.09807 12.7935 9.166 13.0547 9.25884C13.1673 9.29733 13.2777 9.34261 13.388 9.39016C13.7123 9.53508 13.978 9.72754 14.1807 9.96528C14.1852 9.96981 14.1897 9.97434 14.1942 9.98113C14.3473 10.1645 14.4644 10.3751 14.5387 10.6129C14.595 10.7917 14.6311 10.9842 14.6401 11.1925C14.6558 11.4552 14.6603 11.7201 14.6626 11.9827Z" fill="#1256C6"/>
<mask id="path-13-outside-1_8730_7255" maskUnits="userSpaceOnUse" x="6.14062" y="10.1699" width="5" height="6" fill="black">
<rect fill="white" x="6.14062" y="10.1699" width="5" height="6"/>
<path d="M10.496 12.5919H10.3812C10.3519 12.5919 10.3226 12.5828 10.2978 12.5647C10.2731 12.5466 10.255 12.5217 10.246 12.4945C10.2213 12.4198 10.192 12.3451 10.156 12.2749C10.1425 12.2477 10.1379 12.2183 10.1425 12.1888C10.147 12.1594 10.1605 12.1322 10.1807 12.1096L10.2618 12.0281C10.2753 12.0145 10.2866 11.9986 10.2933 11.9828C10.3001 11.9647 10.3046 11.9466 10.3046 11.9284C10.3046 11.9103 10.3001 11.8922 10.2933 11.8741C10.2866 11.856 10.2753 11.8424 10.2618 11.8288L9.98482 11.5481C9.97131 11.5345 9.95554 11.5254 9.93978 11.5164C9.92176 11.5096 9.90375 11.505 9.88573 11.505C9.86772 11.505 9.8497 11.5096 9.83169 11.5164C9.81367 11.5231 9.80016 11.5345 9.78665 11.5481L9.70558 11.6296C9.68531 11.6499 9.65829 11.6635 9.62676 11.6681C9.59748 11.6726 9.56821 11.6681 9.54119 11.6545C9.47138 11.6182 9.39706 11.5865 9.32275 11.5639C9.29347 11.5548 9.2687 11.5367 9.25294 11.5118C9.23492 11.4869 9.22592 11.4575 9.22592 11.428V11.3126C9.22592 11.2945 9.22141 11.2763 9.21466 11.2582C9.2079 11.2401 9.19664 11.2265 9.18538 11.2129C9.17412 11.1994 9.15611 11.1903 9.14034 11.1812C9.12233 11.1745 9.10431 11.1699 9.0863 11.1699H8.69446C8.65618 11.1699 8.6224 11.1858 8.59537 11.2107C8.56835 11.2379 8.55484 11.2741 8.55484 11.3103V11.4258C8.55484 11.4552 8.54583 11.4847 8.52782 11.5096C8.5098 11.5345 8.48503 11.5526 8.45801 11.5616C8.38369 11.5865 8.30938 11.616 8.23957 11.6522C8.21255 11.6658 8.18327 11.6703 8.154 11.6658C8.12472 11.6613 8.0977 11.6477 8.07518 11.6273L7.99411 11.5458C7.9806 11.5322 7.96483 11.5231 7.94907 11.5141C7.93331 11.505 7.91304 11.5028 7.89502 11.5028C7.87701 11.5028 7.85899 11.5073 7.84098 11.5141C7.82296 11.5209 7.80945 11.5322 7.79594 11.5458L7.51445 11.8288C7.50093 11.8424 7.48967 11.8583 7.48292 11.8741C7.47616 11.8922 7.47166 11.9103 7.47166 11.9284C7.47166 11.9466 7.47616 11.9647 7.48292 11.9828C7.48967 12.0009 7.50093 12.0145 7.51445 12.0281L7.59326 12.1096C7.61353 12.13 7.62704 12.1571 7.63155 12.1888C7.63605 12.2183 7.63155 12.25 7.61804 12.2749C7.582 12.3451 7.55273 12.4198 7.52796 12.4945C7.51895 12.5239 7.50093 12.5489 7.47842 12.567C7.45364 12.5851 7.42437 12.5941 7.39509 12.5941H7.28025C7.24196 12.5941 7.20818 12.61 7.18116 12.6349C7.15414 12.6621 7.14062 12.6983 7.14062 12.7345V13.1308C7.14062 13.1693 7.15639 13.2032 7.18116 13.2304C7.20818 13.2576 7.24196 13.2712 7.28025 13.2712H7.39509C7.42437 13.2712 7.45364 13.2802 7.47842 13.2983C7.50319 13.3164 7.5212 13.3413 7.52796 13.3708C7.55273 13.4455 7.582 13.5202 7.61804 13.5904C7.63155 13.6176 7.63605 13.647 7.63155 13.6765C7.62704 13.7059 7.61353 13.7331 7.59326 13.7557L7.51445 13.835C7.50093 13.8485 7.49193 13.8644 7.48292 13.8802C7.47616 13.8984 7.47166 13.9165 7.47166 13.9346C7.47166 13.9527 7.47616 13.9708 7.48292 13.9889C7.48967 14.007 7.50093 14.0206 7.51445 14.0342L7.79369 14.315C7.8072 14.3286 7.82296 14.3399 7.83872 14.3467C7.85674 14.3535 7.87476 14.358 7.89277 14.358C7.91079 14.358 7.9288 14.3535 7.94682 14.3467C7.96483 14.3399 7.97834 14.3286 7.99186 14.315L8.07293 14.2335C8.09319 14.2131 8.12247 14.1995 8.15174 14.195C8.18102 14.1904 8.21029 14.195 8.23732 14.2086C8.30713 14.2448 8.38144 14.2765 8.45575 14.2991C8.48503 14.3082 8.5098 14.3263 8.52556 14.3512C8.54358 14.3761 8.55259 14.4055 8.55259 14.435V14.5505C8.55259 14.5867 8.56835 14.6229 8.59312 14.6501C8.62015 14.6773 8.65392 14.6908 8.69221 14.6908H9.08404C9.12007 14.6908 9.15611 14.6773 9.18313 14.6501C9.21015 14.6229 9.22366 14.589 9.22366 14.5505V14.435C9.22366 14.4055 9.23267 14.3761 9.25069 14.3512C9.2687 14.3263 9.29347 14.3082 9.3205 14.2991C9.39481 14.2742 9.46912 14.2448 9.53893 14.2086C9.56596 14.195 9.59523 14.1904 9.62451 14.195C9.65378 14.1995 9.68081 14.2131 9.70333 14.2335L9.78439 14.315C9.79791 14.3286 9.81367 14.3376 9.82943 14.3467C9.84745 14.3535 9.86546 14.358 9.88348 14.358C9.9015 14.358 9.91951 14.3535 9.93753 14.3467C9.95554 14.3399 9.96905 14.3286 9.98257 14.315L10.2618 14.0342C10.2753 14.0206 10.2843 14.0048 10.2933 13.9889C10.3001 13.9708 10.3046 13.9527 10.3046 13.9346C10.3046 13.9165 10.3001 13.8984 10.2933 13.8802C10.2866 13.8621 10.2753 13.8485 10.2618 13.835L10.1807 13.7557C10.1605 13.7353 10.147 13.7059 10.1425 13.6765C10.1379 13.647 10.1425 13.6153 10.156 13.5904C10.192 13.5202 10.2235 13.4455 10.246 13.3708C10.255 13.3413 10.2731 13.3164 10.2978 13.3006C10.3226 13.2825 10.3519 13.2734 10.3812 13.2734H10.496C10.5343 13.2734 10.5681 13.2576 10.5951 13.2327C10.6221 13.2078 10.6356 13.1693 10.6356 13.133V12.7368C10.6356 12.6983 10.6199 12.6643 10.5951 12.6372C10.5703 12.61 10.532 12.5919 10.496 12.5919ZM8.89038 13.7104C8.73725 13.7104 8.58637 13.6651 8.46026 13.5791C8.3319 13.4931 8.23281 13.3708 8.17426 13.2281C8.11571 13.0855 8.09995 12.9293 8.12922 12.7775C8.1585 12.6258 8.23281 12.4877 8.34091 12.379C8.449 12.2704 8.58637 12.1956 8.73725 12.1662C8.88813 12.1368 9.04351 12.1526 9.18538 12.2115C9.32725 12.2704 9.44886 12.37 9.53218 12.499C9.61775 12.6281 9.66279 12.7775 9.66279 12.9315C9.66279 13.0334 9.64252 13.1353 9.60424 13.2304C9.56596 13.3255 9.50741 13.4115 9.43534 13.484C9.36328 13.5565 9.27771 13.6131 9.18313 13.6538C9.09305 13.69 8.99171 13.7104 8.89038 13.7104Z"/>
</mask>
<path d="M10.496 12.5919H10.3812C10.3519 12.5919 10.3226 12.5828 10.2978 12.5647C10.2731 12.5466 10.255 12.5217 10.246 12.4945C10.2213 12.4198 10.192 12.3451 10.156 12.2749C10.1425 12.2477 10.1379 12.2183 10.1425 12.1888C10.147 12.1594 10.1605 12.1322 10.1807 12.1096L10.2618 12.0281C10.2753 12.0145 10.2866 11.9986 10.2933 11.9828C10.3001 11.9647 10.3046 11.9466 10.3046 11.9284C10.3046 11.9103 10.3001 11.8922 10.2933 11.8741C10.2866 11.856 10.2753 11.8424 10.2618 11.8288L9.98482 11.5481C9.97131 11.5345 9.95554 11.5254 9.93978 11.5164C9.92176 11.5096 9.90375 11.505 9.88573 11.505C9.86772 11.505 9.8497 11.5096 9.83169 11.5164C9.81367 11.5231 9.80016 11.5345 9.78665 11.5481L9.70558 11.6296C9.68531 11.6499 9.65829 11.6635 9.62676 11.6681C9.59748 11.6726 9.56821 11.6681 9.54119 11.6545C9.47138 11.6182 9.39706 11.5865 9.32275 11.5639C9.29347 11.5548 9.2687 11.5367 9.25294 11.5118C9.23492 11.4869 9.22592 11.4575 9.22592 11.428V11.3126C9.22592 11.2945 9.22141 11.2763 9.21466 11.2582C9.2079 11.2401 9.19664 11.2265 9.18538 11.2129C9.17412 11.1994 9.15611 11.1903 9.14034 11.1812C9.12233 11.1745 9.10431 11.1699 9.0863 11.1699H8.69446C8.65618 11.1699 8.6224 11.1858 8.59537 11.2107C8.56835 11.2379 8.55484 11.2741 8.55484 11.3103V11.4258C8.55484 11.4552 8.54583 11.4847 8.52782 11.5096C8.5098 11.5345 8.48503 11.5526 8.45801 11.5616C8.38369 11.5865 8.30938 11.616 8.23957 11.6522C8.21255 11.6658 8.18327 11.6703 8.154 11.6658C8.12472 11.6613 8.0977 11.6477 8.07518 11.6273L7.99411 11.5458C7.9806 11.5322 7.96483 11.5231 7.94907 11.5141C7.93331 11.505 7.91304 11.5028 7.89502 11.5028C7.87701 11.5028 7.85899 11.5073 7.84098 11.5141C7.82296 11.5209 7.80945 11.5322 7.79594 11.5458L7.51445 11.8288C7.50093 11.8424 7.48967 11.8583 7.48292 11.8741C7.47616 11.8922 7.47166 11.9103 7.47166 11.9284C7.47166 11.9466 7.47616 11.9647 7.48292 11.9828C7.48967 12.0009 7.50093 12.0145 7.51445 12.0281L7.59326 12.1096C7.61353 12.13 7.62704 12.1571 7.63155 12.1888C7.63605 12.2183 7.63155 12.25 7.61804 12.2749C7.582 12.3451 7.55273 12.4198 7.52796 12.4945C7.51895 12.5239 7.50093 12.5489 7.47842 12.567C7.45364 12.5851 7.42437 12.5941 7.39509 12.5941H7.28025C7.24196 12.5941 7.20818 12.61 7.18116 12.6349C7.15414 12.6621 7.14062 12.6983 7.14062 12.7345V13.1308C7.14062 13.1693 7.15639 13.2032 7.18116 13.2304C7.20818 13.2576 7.24196 13.2712 7.28025 13.2712H7.39509C7.42437 13.2712 7.45364 13.2802 7.47842 13.2983C7.50319 13.3164 7.5212 13.3413 7.52796 13.3708C7.55273 13.4455 7.582 13.5202 7.61804 13.5904C7.63155 13.6176 7.63605 13.647 7.63155 13.6765C7.62704 13.7059 7.61353 13.7331 7.59326 13.7557L7.51445 13.835C7.50093 13.8485 7.49193 13.8644 7.48292 13.8802C7.47616 13.8984 7.47166 13.9165 7.47166 13.9346C7.47166 13.9527 7.47616 13.9708 7.48292 13.9889C7.48967 14.007 7.50093 14.0206 7.51445 14.0342L7.79369 14.315C7.8072 14.3286 7.82296 14.3399 7.83872 14.3467C7.85674 14.3535 7.87476 14.358 7.89277 14.358C7.91079 14.358 7.9288 14.3535 7.94682 14.3467C7.96483 14.3399 7.97834 14.3286 7.99186 14.315L8.07293 14.2335C8.09319 14.2131 8.12247 14.1995 8.15174 14.195C8.18102 14.1904 8.21029 14.195 8.23732 14.2086C8.30713 14.2448 8.38144 14.2765 8.45575 14.2991C8.48503 14.3082 8.5098 14.3263 8.52556 14.3512C8.54358 14.3761 8.55259 14.4055 8.55259 14.435V14.5505C8.55259 14.5867 8.56835 14.6229 8.59312 14.6501C8.62015 14.6773 8.65392 14.6908 8.69221 14.6908H9.08404C9.12007 14.6908 9.15611 14.6773 9.18313 14.6501C9.21015 14.6229 9.22366 14.589 9.22366 14.5505V14.435C9.22366 14.4055 9.23267 14.3761 9.25069 14.3512C9.2687 14.3263 9.29347 14.3082 9.3205 14.2991C9.39481 14.2742 9.46912 14.2448 9.53893 14.2086C9.56596 14.195 9.59523 14.1904 9.62451 14.195C9.65378 14.1995 9.68081 14.2131 9.70333 14.2335L9.78439 14.315C9.79791 14.3286 9.81367 14.3376 9.82943 14.3467C9.84745 14.3535 9.86546 14.358 9.88348 14.358C9.9015 14.358 9.91951 14.3535 9.93753 14.3467C9.95554 14.3399 9.96905 14.3286 9.98257 14.315L10.2618 14.0342C10.2753 14.0206 10.2843 14.0048 10.2933 13.9889C10.3001 13.9708 10.3046 13.9527 10.3046 13.9346C10.3046 13.9165 10.3001 13.8984 10.2933 13.8802C10.2866 13.8621 10.2753 13.8485 10.2618 13.835L10.1807 13.7557C10.1605 13.7353 10.147 13.7059 10.1425 13.6765C10.1379 13.647 10.1425 13.6153 10.156 13.5904C10.192 13.5202 10.2235 13.4455 10.246 13.3708C10.255 13.3413 10.2731 13.3164 10.2978 13.3006C10.3226 13.2825 10.3519 13.2734 10.3812 13.2734H10.496C10.5343 13.2734 10.5681 13.2576 10.5951 13.2327C10.6221 13.2078 10.6356 13.1693 10.6356 13.133V12.7368C10.6356 12.6983 10.6199 12.6643 10.5951 12.6372C10.5703 12.61 10.532 12.5919 10.496 12.5919ZM8.89038 13.7104C8.73725 13.7104 8.58637 13.6651 8.46026 13.5791C8.3319 13.4931 8.23281 13.3708 8.17426 13.2281C8.11571 13.0855 8.09995 12.9293 8.12922 12.7775C8.1585 12.6258 8.23281 12.4877 8.34091 12.379C8.449 12.2704 8.58637 12.1956 8.73725 12.1662C8.88813 12.1368 9.04351 12.1526 9.18538 12.2115C9.32725 12.2704 9.44886 12.37 9.53218 12.499C9.61775 12.6281 9.66279 12.7775 9.66279 12.9315C9.66279 13.0334 9.64252 13.1353 9.60424 13.2304C9.56596 13.3255 9.50741 13.4115 9.43534 13.484C9.36328 13.5565 9.27771 13.6131 9.18313 13.6538C9.09305 13.69 8.99171 13.7104 8.89038 13.7104Z" fill="#FFC217"/>
<path d="M10.496 12.5919H10.3812C10.3519 12.5919 10.3226 12.5828 10.2978 12.5647C10.2731 12.5466 10.255 12.5217 10.246 12.4945C10.2213 12.4198 10.192 12.3451 10.156 12.2749C10.1425 12.2477 10.1379 12.2183 10.1425 12.1888C10.147 12.1594 10.1605 12.1322 10.1807 12.1096L10.2618 12.0281C10.2753 12.0145 10.2866 11.9986 10.2933 11.9828C10.3001 11.9647 10.3046 11.9466 10.3046 11.9284C10.3046 11.9103 10.3001 11.8922 10.2933 11.8741C10.2866 11.856 10.2753 11.8424 10.2618 11.8288L9.98482 11.5481C9.97131 11.5345 9.95554 11.5254 9.93978 11.5164C9.92176 11.5096 9.90375 11.505 9.88573 11.505C9.86772 11.505 9.8497 11.5096 9.83169 11.5164C9.81367 11.5231 9.80016 11.5345 9.78665 11.5481L9.70558 11.6296C9.68531 11.6499 9.65829 11.6635 9.62676 11.6681C9.59748 11.6726 9.56821 11.6681 9.54119 11.6545C9.47138 11.6182 9.39706 11.5865 9.32275 11.5639C9.29347 11.5548 9.2687 11.5367 9.25294 11.5118C9.23492 11.4869 9.22592 11.4575 9.22592 11.428V11.3126C9.22592 11.2945 9.22141 11.2763 9.21466 11.2582C9.2079 11.2401 9.19664 11.2265 9.18538 11.2129C9.17412 11.1994 9.15611 11.1903 9.14034 11.1812C9.12233 11.1745 9.10431 11.1699 9.0863 11.1699H8.69446C8.65618 11.1699 8.6224 11.1858 8.59537 11.2107C8.56835 11.2379 8.55484 11.2741 8.55484 11.3103V11.4258C8.55484 11.4552 8.54583 11.4847 8.52782 11.5096C8.5098 11.5345 8.48503 11.5526 8.45801 11.5616C8.38369 11.5865 8.30938 11.616 8.23957 11.6522C8.21255 11.6658 8.18327 11.6703 8.154 11.6658C8.12472 11.6613 8.0977 11.6477 8.07518 11.6273L7.99411 11.5458C7.9806 11.5322 7.96483 11.5231 7.94907 11.5141C7.93331 11.505 7.91304 11.5028 7.89502 11.5028C7.87701 11.5028 7.85899 11.5073 7.84098 11.5141C7.82296 11.5209 7.80945 11.5322 7.79594 11.5458L7.51445 11.8288C7.50093 11.8424 7.48967 11.8583 7.48292 11.8741C7.47616 11.8922 7.47166 11.9103 7.47166 11.9284C7.47166 11.9466 7.47616 11.9647 7.48292 11.9828C7.48967 12.0009 7.50093 12.0145 7.51445 12.0281L7.59326 12.1096C7.61353 12.13 7.62704 12.1571 7.63155 12.1888C7.63605 12.2183 7.63155 12.25 7.61804 12.2749C7.582 12.3451 7.55273 12.4198 7.52796 12.4945C7.51895 12.5239 7.50093 12.5489 7.47842 12.567C7.45364 12.5851 7.42437 12.5941 7.39509 12.5941H7.28025C7.24196 12.5941 7.20818 12.61 7.18116 12.6349C7.15414 12.6621 7.14062 12.6983 7.14062 12.7345V13.1308C7.14062 13.1693 7.15639 13.2032 7.18116 13.2304C7.20818 13.2576 7.24196 13.2712 7.28025 13.2712H7.39509C7.42437 13.2712 7.45364 13.2802 7.47842 13.2983C7.50319 13.3164 7.5212 13.3413 7.52796 13.3708C7.55273 13.4455 7.582 13.5202 7.61804 13.5904C7.63155 13.6176 7.63605 13.647 7.63155 13.6765C7.62704 13.7059 7.61353 13.7331 7.59326 13.7557L7.51445 13.835C7.50093 13.8485 7.49193 13.8644 7.48292 13.8802C7.47616 13.8984 7.47166 13.9165 7.47166 13.9346C7.47166 13.9527 7.47616 13.9708 7.48292 13.9889C7.48967 14.007 7.50093 14.0206 7.51445 14.0342L7.79369 14.315C7.8072 14.3286 7.82296 14.3399 7.83872 14.3467C7.85674 14.3535 7.87476 14.358 7.89277 14.358C7.91079 14.358 7.9288 14.3535 7.94682 14.3467C7.96483 14.3399 7.97834 14.3286 7.99186 14.315L8.07293 14.2335C8.09319 14.2131 8.12247 14.1995 8.15174 14.195C8.18102 14.1904 8.21029 14.195 8.23732 14.2086C8.30713 14.2448 8.38144 14.2765 8.45575 14.2991C8.48503 14.3082 8.5098 14.3263 8.52556 14.3512C8.54358 14.3761 8.55259 14.4055 8.55259 14.435V14.5505C8.55259 14.5867 8.56835 14.6229 8.59312 14.6501C8.62015 14.6773 8.65392 14.6908 8.69221 14.6908H9.08404C9.12007 14.6908 9.15611 14.6773 9.18313 14.6501C9.21015 14.6229 9.22366 14.589 9.22366 14.5505V14.435C9.22366 14.4055 9.23267 14.3761 9.25069 14.3512C9.2687 14.3263 9.29347 14.3082 9.3205 14.2991C9.39481 14.2742 9.46912 14.2448 9.53893 14.2086C9.56596 14.195 9.59523 14.1904 9.62451 14.195C9.65378 14.1995 9.68081 14.2131 9.70333 14.2335L9.78439 14.315C9.79791 14.3286 9.81367 14.3376 9.82943 14.3467C9.84745 14.3535 9.86546 14.358 9.88348 14.358C9.9015 14.358 9.91951 14.3535 9.93753 14.3467C9.95554 14.3399 9.96905 14.3286 9.98257 14.315L10.2618 14.0342C10.2753 14.0206 10.2843 14.0048 10.2933 13.9889C10.3001 13.9708 10.3046 13.9527 10.3046 13.9346C10.3046 13.9165 10.3001 13.8984 10.2933 13.8802C10.2866 13.8621 10.2753 13.8485 10.2618 13.835L10.1807 13.7557C10.1605 13.7353 10.147 13.7059 10.1425 13.6765C10.1379 13.647 10.1425 13.6153 10.156 13.5904C10.192 13.5202 10.2235 13.4455 10.246 13.3708C10.255 13.3413 10.2731 13.3164 10.2978 13.3006C10.3226 13.2825 10.3519 13.2734 10.3812 13.2734H10.496C10.5343 13.2734 10.5681 13.2576 10.5951 13.2327C10.6221 13.2078 10.6356 13.1693 10.6356 13.133V12.7368C10.6356 12.6983 10.6199 12.6643 10.5951 12.6372C10.5703 12.61 10.532 12.5919 10.496 12.5919ZM8.89038 13.7104C8.73725 13.7104 8.58637 13.6651 8.46026 13.5791C8.3319 13.4931 8.23281 13.3708 8.17426 13.2281C8.11571 13.0855 8.09995 12.9293 8.12922 12.7775C8.1585 12.6258 8.23281 12.4877 8.34091 12.379C8.449 12.2704 8.58637 12.1956 8.73725 12.1662C8.88813 12.1368 9.04351 12.1526 9.18538 12.2115C9.32725 12.2704 9.44886 12.37 9.53218 12.499C9.61775 12.6281 9.66279 12.7775 9.66279 12.9315C9.66279 13.0334 9.64252 13.1353 9.60424 13.2304C9.56596 13.3255 9.50741 13.4115 9.43534 13.484C9.36328 13.5565 9.27771 13.6131 9.18313 13.6538C9.09305 13.69 8.99171 13.7104 8.89038 13.7104Z" stroke="black" mask="url(#path-13-outside-1_8730_7255)"/>
<path d="M13.0198 10.3921L13.1194 10.4038C13.3449 10.4524 13.5178 10.6503 13.5178 10.896C13.5177 11.0318 13.4641 11.1555 13.3704 11.2476L13.3713 11.2485L13.3645 11.2554C13.3604 11.2595 13.3438 11.2745 13.3206 11.2915L13.3215 11.2925C13.3193 11.2942 13.3161 11.2947 13.3137 11.2964C13.3125 11.2973 13.3121 11.2994 13.3108 11.3003L13.3098 11.2993C13.2482 11.3435 13.167 11.3846 13.0686 11.394L13.0569 11.395H13.051C13.049 11.3952 13.0465 11.3958 13.0442 11.396C13.0379 11.3965 13.0278 11.397 13.0159 11.397H11.6536C11.3847 11.3877 11.1694 11.167 11.1692 10.896C11.1692 10.7622 11.2219 10.6354 11.3176 10.5415L11.3167 10.5405L11.3196 10.5396L11.3206 10.5366L11.3215 10.5376C11.4088 10.4519 11.5311 10.3921 11.6692 10.3921H13.0198Z" fill="#FFC217" stroke="black" stroke-width="0.5"/>
<path d="M4.27661 13.3403C4.71532 13.3405 5.0686 13.6984 5.0686 14.1362V16.0278H3.66626C3.2274 16.0278 2.8733 15.6699 2.87329 15.2319V13.3403H4.27661Z" fill="#FEEBE2" stroke="black" stroke-width="0.5"/>
<path d="M14.9124 13.3403V15.2319C14.9123 15.6697 14.5591 16.0277 14.1204 16.0278H12.717V14.1362C12.717 13.7867 12.943 13.4863 13.259 13.3804C13.3408 13.353 13.4265 13.3403 13.512 13.3403H14.9124Z" fill="#FEEBE2" stroke="black" stroke-width="0.5"/>
<path d="M6.39233 3.93311C7.60872 3.64776 8.83893 3.56727 10.0837 3.71533H10.0916C10.5337 3.75257 10.9686 3.82717 11.3962 3.93604H11.3972C11.5398 3.96911 11.6903 4.00261 11.8396 4.04248H11.8416C11.879 4.05275 11.9036 4.05623 11.9207 4.05615C11.9353 4.05607 11.9449 4.0538 11.9539 4.04932L12.1472 3.95166L12.2703 4.12939C12.4898 4.44341 12.4443 4.80714 12.4324 5.03076V5.03174C12.4085 5.46064 12.0237 5.78226 11.6189 5.78955L11.6199 5.79053C11.6112 5.79075 11.6022 5.79035 11.5935 5.79053C11.5583 6.51507 11.1746 7.06143 10.6541 7.50146C10.6562 7.92054 10.656 8.33735 10.656 8.75342V8.86377L10.574 8.93896C10.294 9.19348 10.0108 9.44682 9.7312 9.69873L9.73218 9.69971C9.62613 9.80066 9.51913 9.90179 9.41284 10.0024C9.30645 10.1032 9.19999 10.2038 9.09448 10.3042L9.02222 10.3735H8.76831L8.69604 10.3071C8.44839 10.0785 8.20096 9.85064 7.95386 9.62256C7.70676 9.39448 7.46032 9.16567 7.21265 8.93701L7.13159 8.86279V8.75342C7.13159 8.33514 7.13227 7.91381 7.13452 7.49463L7.13354 7.48877C6.59516 7.05538 6.22815 6.50692 6.19409 5.78857C6.1863 5.7885 6.17844 5.78975 6.17065 5.78955C6.06182 5.78678 5.92538 5.7705 5.78882 5.68994H5.78784C5.5269 5.53484 5.35651 5.29262 5.35327 4.96338C5.35247 4.88078 5.33896 4.71708 5.35034 4.5874C5.36361 4.43655 5.40945 4.26891 5.5437 4.1167L5.66382 3.97998L5.82983 4.05225C5.84047 4.05683 5.85538 4.06019 5.89429 4.05322C5.91557 4.04941 5.93973 4.04384 5.97241 4.03467C6.00171 4.02645 6.04316 4.01392 6.08374 4.00439L6.08667 4.00342C6.13609 3.99237 6.18671 3.98115 6.23804 3.96924C6.28888 3.95744 6.34072 3.94464 6.39233 3.93311Z" fill="#FEEBE1" stroke="black" stroke-width="0.5"/>
<path d="M10.0686 5.57705C10.0596 5.87366 10.0281 6.16802 9.89745 6.44426C9.64749 6.97409 9.24664 7.34317 8.73771 7.61035C8.59583 7.68507 8.45171 7.75074 8.28732 7.82998C8.50801 7.9115 8.70843 7.96584 8.92011 7.94093C9.08 7.92282 9.11603 7.98622 9.10927 8.13566C9.09801 8.38926 9.10252 8.64285 9.10702 8.89419C9.11153 9.14552 9.2016 9.34477 9.44481 9.45119C9.48535 9.46931 9.52138 9.49874 9.55966 9.52139C9.34798 9.7229 9.13405 9.92442 8.92236 10.1259H8.86607C8.37064 9.66856 7.87747 9.21345 7.38204 8.75607C7.38204 8.33718 7.38204 7.91603 7.38429 7.49714C7.38429 7.42242 7.37303 7.36355 7.30773 7.31147C6.74249 6.86088 6.39795 6.29935 6.44524 5.54308C6.44524 5.08797 6.44524 4.63512 6.44524 4.18C7.64101 3.89923 8.84805 3.81998 10.0686 3.96716C10.0709 4.50379 10.0821 5.04042 10.0686 5.57705Z" fill="#FEEBE2"/>
<path d="M10.4072 8.75375C10.1257 9.00961 9.84192 9.26547 9.56043 9.51907C9.52215 9.49416 9.48612 9.46699 9.44558 9.44888C9.20237 9.34246 9.11004 9.14094 9.10779 8.89187C9.10329 8.63827 9.09878 8.38468 9.11004 8.13334C9.1168 7.9839 9.08077 7.9205 8.92088 7.93862C8.7092 7.96353 8.50878 7.91145 8.28809 7.82767C8.45248 7.74842 8.59885 7.68049 8.73847 7.60804C9.24516 7.34312 9.64825 6.97178 9.89822 6.44194C10.0288 6.1657 10.0604 5.86909 10.0694 5.57473C10.0829 5.0381 10.0739 4.50147 10.0739 3.96484C10.504 4.00107 10.9274 4.07353 11.344 4.17995C11.344 4.63506 11.344 5.08792 11.344 5.54303C11.3935 6.29929 11.0354 6.8563 10.486 7.31821C10.4274 7.36576 10.4049 7.40878 10.4049 7.48124C10.4072 7.90465 10.4049 8.33034 10.4072 8.75375Z" fill="#FEDCCD"/>
<path d="M5.73386 4.28384C5.87573 4.34498 6.0086 4.28158 6.14371 4.24988C6.24505 4.22724 6.34864 4.20233 6.44998 4.17969C6.44998 4.6348 6.44998 5.08766 6.44998 5.54277C6.27207 5.52919 6.08967 5.57674 5.92077 5.47711C5.7226 5.35937 5.61001 5.19181 5.6055 4.96312C5.601 4.7299 5.55596 4.4831 5.73386 4.28384Z" fill="#FEDCCD"/>
<path d="M11.3411 5.54277C11.3411 5.08766 11.3411 4.6348 11.3411 4.17969C11.4852 4.21365 11.6316 4.24762 11.7757 4.28384C11.8748 4.31101 11.9716 4.32007 12.0662 4.27252C12.2261 4.50121 12.1945 4.76387 12.181 5.01746C12.1653 5.30276 11.8995 5.53598 11.6113 5.54051C11.5235 5.54277 11.4334 5.54277 11.3411 5.54277Z" fill="#FEEAE2"/>
<path d="M8.23486 0.0864258C8.68526 -0.0714285 9.13924 -0.0635743 9.5835 0.0981445L9.58252 0.0991211C9.95299 0.232149 10.342 0.364095 10.7183 0.501465L10.8823 0.566895C11.6799 0.920681 12.1432 1.63376 12.1509 2.53271V2.96631C12.1483 3.23165 12.1425 3.33237 12.2427 3.43311H12.2417C12.328 3.51856 12.3703 3.62097 12.3931 3.70557C12.4156 3.78918 12.4247 3.87568 12.4312 3.93604H12.4302C12.4526 4.12438 12.4082 4.33009 12.2144 4.47412L12.1968 4.48682L12.1772 4.49658C12.0014 4.58486 11.8312 4.55951 11.7085 4.52588V4.5249C11.5697 4.4879 11.4321 4.45855 11.2827 4.42334L11.2778 4.42236C10.8745 4.31935 10.465 4.24939 10.0493 4.21436L10.0405 4.21338C8.85015 4.07205 7.67206 4.14699 6.50342 4.42139L6.50146 4.42236C6.39845 4.44538 6.29775 4.46663 6.19971 4.49072L6.19775 4.4917C6.17031 4.49814 6.14396 4.5056 6.10596 4.51611C6.07136 4.52569 6.0281 4.53729 5.98193 4.54541C5.88561 4.56234 5.76583 4.56609 5.63623 4.51318L5.60889 4.50244L5.58447 4.48486C5.45647 4.39266 5.38499 4.272 5.35889 4.14014C5.33525 4.02035 5.35184 3.90361 5.36768 3.81787V3.81689C5.41113 3.58817 5.53475 3.41074 5.64111 3.27393C5.62066 2.80365 5.57499 2.25271 5.77881 1.72607L5.86572 1.52979C6.08614 1.08797 6.43389 0.755413 6.90967 0.564941H6.91064C7.34742 0.391117 7.80403 0.241223 8.23291 0.0864258H8.23486Z" fill="#176CF7" stroke="black" stroke-width="0.5"/>
<path d="M10.07 3.96723C8.84941 3.82232 7.64237 3.8993 6.4466 4.18007C6.34526 4.20271 6.24167 4.22535 6.14033 4.25026C6.00522 4.28196 5.87461 4.34309 5.73048 4.28422C5.5796 4.17554 5.58411 4.02383 5.61338 3.86534C5.65167 3.66382 5.77327 3.51211 5.89487 3.35814C6.02549 3.29474 6.14934 3.21097 6.29347 3.17927C6.94428 3.03888 7.59959 2.93246 8.26391 2.90529C9.01605 2.87359 9.7682 2.88718 10.5136 3.00492C10.6104 3.02077 10.6149 2.98001 10.6149 2.91208C10.6149 2.76038 10.6172 2.60867 10.6149 2.45697C10.6037 1.72788 10.2546 1.19804 9.62858 0.860665C9.25701 0.66141 8.8404 0.561782 8.44631 0.414606C8.39677 0.396491 8.33372 0.396491 8.32021 0.326299C8.71429 0.18818 9.10838 0.194972 9.50022 0.337621C9.87854 0.473476 10.2569 0.602539 10.6352 0.740659C11.4346 1.03048 11.8963 1.68712 11.903 2.54074C11.9053 2.68113 11.9053 2.82378 11.903 2.96416C11.9008 3.19512 11.8783 3.42154 12.0674 3.61174C12.1552 3.69778 12.171 3.83817 12.1845 3.96496C12.198 4.0895 12.1688 4.19592 12.0652 4.2729C11.9706 4.32045 11.8738 4.3114 11.7747 4.28422C11.6305 4.24573 11.4842 4.21403 11.34 4.18007C10.9234 4.07591 10.5001 4.00346 10.07 3.96723Z" fill="#1256C6"/>
<path d="M8.32011 0.326172C8.33362 0.396364 8.39667 0.396364 8.44622 0.414478C8.84031 0.561655 9.25691 0.661282 9.62848 0.860537C10.2545 1.19791 10.6013 1.72775 10.6148 2.45684C10.6171 2.60855 10.6148 2.76025 10.6148 2.91196C10.6148 2.98215 10.6126 3.02064 10.5135 3.00479C9.7681 2.88705 9.01596 2.87346 8.26381 2.90516C7.59949 2.93233 6.94418 3.03875 6.29337 3.17914C6.14925 3.21084 6.02764 3.29462 5.89478 3.35802C5.87676 2.84176 5.81821 2.31872 6.01188 1.82058C6.19879 1.34056 6.52757 0.991864 7.00273 0.801666C7.4396 0.629583 7.88098 0.48467 8.32011 0.326172Z" fill="#176CF7"/>
</g>
<defs>
<clipPath id="clip0_8730_7255">
<rect width="16" height="16" fill="white"/>
</clipPath>
</defs>
</svg>
