<svg width="16" height="16" viewBox="0 0 16 16" fill="none" xmlns="http://www.w3.org/2000/svg">
<path d="M4 8C6.20914 8 8 6.20914 8 4C8 1.79086 6.20914 0 4 0C1.79086 0 0 1.79086 0 4C0 6.20914 1.79086 8 4 8Z" fill="#FFC217"/>
<path d="M7.85254 1.53369C8.51406 1.53369 9.08741 1.87513 9.39844 2.42529L9.42969 2.47998L9.4873 2.50732C10.7472 3.10896 11.6201 4.39419 11.6201 5.88037V7.56689C11.6201 7.72832 11.6556 7.9325 11.707 8.12256C11.7586 8.31292 11.8308 8.50854 11.9121 8.65186L11.915 8.65674L12.582 9.76318V9.76416C12.8101 10.1385 12.8507 10.5808 12.6992 10.9829C12.5466 11.388 12.2315 11.6967 11.8242 11.8306H11.8232C10.5512 12.2568 9.21223 12.4673 7.87305 12.4673C6.53385 12.4673 5.19539 12.2563 3.92383 11.8237L3.7627 11.7603C3.40047 11.5958 3.13406 11.3192 3.01465 10.9858L3.01367 10.9849L2.96875 10.8364C2.8851 10.487 2.94881 10.1129 3.1582 9.76221L3.15723 9.76123L3.83105 8.6499L3.83203 8.64795C3.9143 8.50692 3.98654 8.31117 4.03809 8.12158C4.08957 7.93219 4.12597 7.7283 4.12598 7.56689V5.88037C4.12598 4.41332 4.98039 3.14043 6.21582 2.52588L6.27051 2.49854L6.30078 2.44482C6.61253 1.88728 7.19952 1.53386 7.85254 1.53369Z" fill="#176CF7" stroke="#003183" stroke-width="0.4"/>
<path d="M6.70239 13.6187V13.6196C7.08709 13.6534 7.47986 13.6733 7.87329 13.6733C8.26015 13.6733 8.64656 13.6534 9.02466 13.6196H9.02563C9.14027 13.6087 9.28011 13.5985 9.40942 13.5815C9.09348 14.1113 8.51744 14.4673 7.85962 14.4673C7.38547 14.4673 6.91776 14.2746 6.59009 13.9351V13.9341L6.58325 13.9272L6.45142 13.7856C6.39854 13.7202 6.35238 13.6486 6.30981 13.5747C6.43678 13.5908 6.56916 13.6075 6.70239 13.6187Z" fill="#176CF7" stroke="#003183" stroke-width="0.4"/>
<path d="M7.99976 4.93359C8.62557 4.93359 9.13337 5.44063 9.13354 6.06641C9.13354 6.69233 8.62568 7.2002 7.99976 7.2002C7.37398 7.20002 6.86694 6.69222 6.86694 6.06641C6.86712 5.44074 7.37409 4.93377 7.99976 4.93359Z" fill="white" stroke="#003183" stroke-width="0.4"/>
<rect x="10.2666" y="2.26657" width="1.73333" height="1.73333" rx="0.866667" fill="white"/>
<rect x="10.2666" y="2.26657" width="1.73333" height="1.73333" rx="0.866667" stroke="#F71717" stroke-width="1.73333"/>
</svg>
