<svg width="16" height="16" viewBox="0 0 16 16" fill="none" xmlns="http://www.w3.org/2000/svg">
<path d="M15.7778 8.69727V11.1219H10.2117L10.8902 9.44575L11.6866 9.78398H14.8783V8.69727H15.7778Z" fill="#176CF7" stroke="#231F20" stroke-width="0.3" stroke-miterlimit="10"/>
<path d="M14.8787 5.79785V9.14483H12.9472L12.6063 9.78406H11.687L10.8906 9.44583L12.3673 5.79785H14.8787Z" fill="white" stroke="#231F20" stroke-width="0.3" stroke-miterlimit="10"/>
<path d="M11.7699 8.76514L11.269 9.57909L11.3943 9.6417L11.8325 8.89036H12.2082V8.76514H11.7699Z" stroke="black" stroke-width="0.3"/>
<path d="M14.8784 9.14453V9.78376H12.606L12.9469 9.14453H14.8784Z" fill="#FFC217" stroke="#231F20" stroke-width="0.3" stroke-miterlimit="10"/>
<path d="M10.4809 10.944V5.91211H10.0791V10.8253H7.85082L7.51294 10.944H10.4809Z" fill="#176CF7" stroke="#231F20" stroke-width="0.3" stroke-miterlimit="10"/>
<path d="M8.22729 9.32959V10.83H9.85648V9.32959H8.22729ZM9.43789 9.84471H8.64593V9.71597H9.43789V9.84471Z" fill="#FFC217" stroke="#231F20" stroke-width="0.3" stroke-miterlimit="10"/>
<path d="M9.98565 9.07178H8.09888V9.32937H9.98565V9.07178Z" fill="#BF9211" stroke="#231F20" stroke-width="0.3" stroke-miterlimit="10"/>
<path d="M9.43783 9.71582H8.64575V9.84461H9.43783V9.71582Z" stroke="#231F20" stroke-width="0.3" stroke-miterlimit="10"/>
<path d="M8.22729 7.57129V9.07167H9.85648V7.57129H8.22729ZM9.43789 8.08647H8.64593V7.95767H9.43789V8.08647Z" fill="#FFC217" stroke="#231F20" stroke-width="0.3" stroke-miterlimit="10"/>
<path d="M9.98565 7.31396H8.09888V7.57155H9.98565V7.31396Z" fill="#BF9211" stroke="#231F20" stroke-width="0.3" stroke-miterlimit="10"/>
<path d="M9.43783 7.95801H8.64575V8.0868H9.43783V7.95801Z" stroke="#231F20" stroke-width="0.3" stroke-miterlimit="10"/>
<path d="M10.7728 11.5789C11.1839 11.5789 11.5171 11.2456 11.5171 10.8346C11.5171 10.4236 11.1839 10.0903 10.7728 10.0903C10.3618 10.0903 10.0286 10.4236 10.0286 10.8346C10.0286 11.2456 10.3618 11.5789 10.7728 11.5789Z" fill="#183E7F" stroke="#231F20" stroke-width="0.3" stroke-miterlimit="10"/>
<path d="M10.769 11.2069C10.9765 11.2069 11.1446 11.0387 11.1446 10.8312C11.1446 10.6238 10.9765 10.4556 10.769 10.4556C10.5615 10.4556 10.3933 10.6238 10.3933 10.8312C10.3933 11.0387 10.5615 11.2069 10.769 11.2069Z" fill="#176CF7" stroke="#231F20" stroke-width="0.3" stroke-miterlimit="10"/>
<path d="M14.7727 11.5786C15.0451 11.5786 15.2658 11.3578 15.2658 11.0854C15.2658 10.8131 15.0451 10.5923 14.7727 10.5923C14.5003 10.5923 14.2795 10.8131 14.2795 11.0854C14.2795 11.3578 14.5003 11.5786 14.7727 11.5786Z" fill="#183E7F" stroke="#231F20" stroke-width="0.3" stroke-miterlimit="10"/>
<path d="M14.7763 11.3324C14.9146 11.3324 15.0268 11.2203 15.0268 11.082C15.0268 10.9437 14.9146 10.8315 14.7763 10.8315C14.638 10.8315 14.5259 10.9437 14.5259 11.082C14.5259 11.2203 14.638 11.3324 14.7763 11.3324Z" fill="#176CF7" stroke="#231F20" stroke-width="0.3" stroke-miterlimit="10"/>
<path fill-rule="evenodd" clip-rule="evenodd" d="M12.3964 9.32893C12.5071 9.32893 12.5968 9.10467 12.5968 8.82804C12.5968 8.55141 12.5071 8.32715 12.3964 8.32715C12.2857 8.32715 12.196 8.55141 12.196 8.82804C12.196 9.10467 12.2857 9.32893 12.3964 9.32893ZM12.3969 9.12866C12.4522 9.12866 12.4971 8.9941 12.4971 8.82812C12.4971 8.66214 12.4522 8.52759 12.3969 8.52759C12.3416 8.52759 12.2967 8.66214 12.2967 8.82812C12.2967 8.9941 12.3416 9.12866 12.3969 9.12866Z" fill="#176CF7"/>
<path d="M12.5968 8.82804H12.4468C12.4468 8.95216 12.4264 9.05762 12.3988 9.12652C12.3849 9.16138 12.372 9.17953 12.3654 9.1865C12.3591 9.19316 12.3695 9.17893 12.3964 9.17893V9.32893V9.47893C12.4786 9.47893 12.5417 9.43667 12.5834 9.39264C12.6247 9.34892 12.655 9.29371 12.6773 9.23793C12.7223 9.12554 12.7468 8.98056 12.7468 8.82804H12.5968ZM12.3964 8.32715V8.47715C12.3695 8.47715 12.3591 8.46292 12.3654 8.46958C12.372 8.47655 12.3849 8.4947 12.3988 8.52956C12.4264 8.59846 12.4468 8.70392 12.4468 8.82804H12.5968H12.7468C12.7468 8.67552 12.7223 8.53054 12.6773 8.41815C12.655 8.36237 12.6247 8.30716 12.5834 8.26344C12.5417 8.21941 12.4786 8.17715 12.3964 8.17715V8.32715ZM12.196 8.82804H12.346C12.346 8.70392 12.3664 8.59846 12.394 8.52956C12.4079 8.4947 12.4208 8.47655 12.4274 8.46958C12.4337 8.46292 12.4233 8.47715 12.3964 8.47715V8.32715V8.17715C12.3142 8.17715 12.2511 8.21941 12.2094 8.26344C12.1681 8.30716 12.1378 8.36237 12.1155 8.41815C12.0705 8.53054 12.046 8.67552 12.046 8.82804H12.196ZM12.3964 9.32893V9.17893C12.4233 9.17893 12.4337 9.19316 12.4274 9.1865C12.4208 9.17953 12.4079 9.16138 12.394 9.12652C12.3664 9.05762 12.346 8.95216 12.346 8.82804H12.196H12.046C12.046 8.98056 12.0705 9.12554 12.1155 9.23793C12.1378 9.29371 12.1681 9.34892 12.2094 9.39264C12.2511 9.43667 12.3142 9.47893 12.3964 9.47893V9.32893ZM12.4971 8.82812H12.3471C12.3471 8.89948 12.3372 8.95785 12.3255 8.9932C12.3193 9.01166 12.3153 9.01577 12.3181 9.01219C12.3196 9.01031 12.3451 8.97866 12.3969 8.97866V9.12866V9.27866C12.4764 9.27866 12.5283 9.23019 12.5537 9.19789C12.5805 9.16389 12.5981 9.124 12.6101 9.08807C12.6345 9.01464 12.6471 8.92275 12.6471 8.82812H12.4971ZM12.3969 8.52759V8.67759C12.3451 8.67759 12.3196 8.64594 12.3181 8.64405C12.3153 8.64047 12.3193 8.64459 12.3255 8.66305C12.3372 8.69839 12.3471 8.75677 12.3471 8.82812H12.4971H12.6471C12.6471 8.7335 12.6345 8.6416 12.6101 8.56818C12.5981 8.53225 12.5805 8.49235 12.5537 8.45836C12.5283 8.42606 12.4764 8.37759 12.3969 8.37759V8.52759ZM12.2967 8.82812H12.4467C12.4467 8.75677 12.4566 8.69839 12.4684 8.66305C12.4745 8.64459 12.4786 8.64047 12.4757 8.64405C12.4742 8.64594 12.4487 8.67759 12.3969 8.67759V8.52759V8.37759C12.3174 8.37759 12.2656 8.42606 12.2401 8.45836C12.2133 8.49235 12.1958 8.53225 12.1838 8.56818C12.1593 8.6416 12.1467 8.7335 12.1467 8.82812H12.2967ZM12.3969 9.12866V8.97866C12.4487 8.97866 12.4742 9.01031 12.4757 9.01219C12.4786 9.01577 12.4745 9.01166 12.4684 8.9932C12.4566 8.95785 12.4467 8.89948 12.4467 8.82812H12.2967H12.1467C12.1467 8.92275 12.1593 9.01464 12.1838 9.08807C12.1958 9.124 12.2133 9.16389 12.2401 9.19789C12.2656 9.23019 12.3174 9.27866 12.3969 9.27866V9.12866Z" fill="black"/>
<path d="M13.514 8.1592C13.514 8.08411 13.5155 8.00894 13.5146 7.93385C13.5138 7.90562 13.5045 7.87829 13.4879 7.85544C13.4469 7.83856 13.4065 7.82216 13.3597 7.82705C13.3238 7.83083 13.287 7.8265 13.2507 7.82815C13.1737 7.83154 13.1033 7.85537 13.0449 7.90648C12.9781 7.96477 12.9274 8.03584 12.8813 8.11156C12.8331 8.19044 12.8 8.2817 12.712 8.33029C12.7073 8.33289 12.7048 8.33928 12.7013 8.34385C12.7086 8.35561 12.7154 8.36752 12.7234 8.37911C12.7693 8.44458 12.8155 8.50997 12.8618 8.57528L13.024 8.51857C13.0441 8.51271 13.0632 8.50363 13.0805 8.49167C13.1792 8.41674 13.2798 8.34441 13.378 8.26876C13.424 8.23303 13.4757 8.20424 13.514 8.1592Z" fill="#BF9211" stroke="#231F20" stroke-width="0.2" stroke-miterlimit="10"/>
<path d="M12.7008 8.34375L12.6693 8.35077C12.6219 8.3981 12.5627 8.42965 12.5098 8.46995C12.4687 8.50095 12.4263 8.53022 12.3845 8.56027C12.4662 8.5676 12.5009 8.61296 12.4968 8.7073C12.5628 8.69199 12.6236 8.66194 12.6879 8.64183C12.7011 8.63773 12.7145 8.63394 12.7279 8.63023C12.7692 8.60452 12.8188 8.59868 12.8611 8.57502C12.8149 8.50966 12.7688 8.44427 12.7227 8.37885C12.7149 8.36765 12.7081 8.3555 12.7008 8.34375Z" fill="#F2C89D" stroke="#231F20" stroke-width="0.2" stroke-miterlimit="10"/>
<path d="M12.2707 8.61669V8.72941C12.2824 8.77366 12.2969 8.78376 12.341 8.7862C12.4045 8.78967 12.4603 8.77973 12.4904 8.71521C12.4924 8.71269 12.4943 8.71016 12.4963 8.70772V8.70709C12.5003 8.61243 12.4657 8.56739 12.3839 8.56006L12.3426 8.56053C12.2968 8.56061 12.2824 8.57189 12.2707 8.61669Z" fill="#FFC217" stroke="#231F20" stroke-width="0.2" stroke-miterlimit="10"/>
<path d="M12.92 8.52513L12.9183 8.68162L12.9787 8.80459L13.031 8.96014H13.6516C13.6877 8.83541 13.7237 8.71078 13.7599 8.58626C13.7696 8.55282 13.764 8.51866 13.7645 8.4849C13.7654 8.43458 13.7645 8.38418 13.7639 8.33385C13.7639 8.25876 13.7654 8.18359 13.7644 8.1085C13.7636 8.0803 13.7543 8.05299 13.7377 8.03018C13.7181 7.98514 13.6825 7.95564 13.6413 7.93182L13.4104 7.79883L13.3908 7.8232C13.3402 7.8863 13.2584 7.90736 13.1869 7.87392C13.1685 7.86417 13.1507 7.85349 13.1334 7.8419C13.0713 7.90413 13.0097 7.96684 12.9471 8.02852C12.9372 8.03757 12.9295 8.04865 12.9243 8.06101C12.9192 8.07336 12.9168 8.08669 12.9173 8.10006C12.9193 8.24172 12.9193 8.38347 12.92 8.52513Z" fill="#FFC217" stroke="#231F20" stroke-width="0.2" stroke-miterlimit="10"/>
<path d="M13.4794 8.33303C13.4794 8.25794 13.4809 8.18277 13.4799 8.10768C13.4791 8.07945 13.4698 8.05212 13.4533 8.02927C13.4122 8.01239 13.3718 7.99599 13.3251 8.00088C13.2891 8.00466 13.2524 8.00032 13.2161 8.00198C13.139 8.00537 13.0686 8.02919 13.0102 8.08031C12.9435 8.1386 12.8928 8.20967 12.8466 8.28539C12.7984 8.36427 12.7653 8.45553 12.6773 8.50411C12.6727 8.50672 12.6702 8.51311 12.6666 8.51768C12.6739 8.52943 12.6807 8.54135 12.6887 8.55294C12.7347 8.61841 12.7808 8.6838 12.8271 8.74911L12.9893 8.6924C13.0095 8.68654 13.0286 8.67746 13.0459 8.6655C13.1445 8.59056 13.2452 8.51823 13.3433 8.44259C13.3893 8.40686 13.441 8.37807 13.4794 8.33303Z" fill="#BF9211" stroke="#231F20" stroke-width="0.2" stroke-miterlimit="10"/>
<path d="M13.1333 7.84176C13.1506 7.85338 13.1684 7.86407 13.1868 7.87378C13.2583 7.90723 13.3402 7.8864 13.3908 7.82299L13.4103 7.79869C13.4377 7.71737 13.4225 7.63352 13.425 7.55078H13.0881C13.0881 7.61049 13.0871 7.6702 13.0873 7.72999C13.0876 7.77322 13.1121 7.80698 13.1333 7.84176Z" fill="#F2C89D" stroke="#231F20" stroke-width="0.2" stroke-miterlimit="10"/>
<path d="M12.9518 8.51807L12.9202 8.52509C12.8729 8.57241 12.8137 8.60396 12.7607 8.64427C12.7196 8.67527 12.6773 8.70453 12.6355 8.73459C12.7172 8.74192 12.7518 8.78728 12.7478 8.88161C12.8137 8.86631 12.8746 8.83626 12.9388 8.81614C12.9521 8.81204 12.9655 8.80826 12.9788 8.80455C13.0202 8.77884 13.0698 8.773 13.1121 8.74934C13.0659 8.68397 13.0197 8.61858 12.9736 8.55317C12.9659 8.54197 12.9591 8.52982 12.9518 8.51807Z" fill="#F2C89D" stroke="#231F20" stroke-width="0.2" stroke-miterlimit="10"/>
<path d="M13.0884 7.55071H13.4255C13.4255 7.49549 13.4268 7.44028 13.426 7.38506C13.4255 7.3476 13.4039 7.3263 13.3663 7.32583C13.2934 7.32498 13.2205 7.32498 13.1477 7.32583C13.11 7.3263 13.0884 7.3476 13.0879 7.38506C13.0871 7.44044 13.0882 7.49557 13.0884 7.55071Z" fill="#6D6E71" stroke="#231F20" stroke-width="0.2" stroke-miterlimit="10"/>
<path d="M12.5214 8.7915V8.90421C12.5331 8.94846 12.5477 8.95856 12.5918 8.96101C12.6553 8.96448 12.711 8.95454 12.7412 8.89002C12.7431 8.88749 12.745 8.88497 12.747 8.88252V8.88189C12.751 8.78724 12.7164 8.7422 12.6347 8.73486L12.5933 8.73534C12.5475 8.73542 12.5331 8.74669 12.5214 8.7915Z" fill="#FFC217" stroke="#231F20" stroke-width="0.2" stroke-miterlimit="10"/>
<path d="M13.0104 8.95312L12.9478 9.14096H13.7617L13.6365 8.95312H13.0104Z" fill="#176CF7" stroke="black" stroke-width="0.3"/>
<path d="M0.161561 3.59229V8.89349V9.96364H7.17781L7.26807 8.89349V3.59229H0.161561Z" fill="#183E7F" stroke="#231F20" stroke-width="0.3" stroke-miterlimit="10" stroke-linejoin="round"/>
<path d="M6.11338 9.18458H6.32357C6.37028 9.18458 6.40698 9.12454 6.40698 9.04812V4.70872C6.40698 4.63231 6.37028 4.57227 6.32357 4.57227H6.11338C6.06667 4.57227 6.02997 4.63231 6.02997 4.70872V9.04812C6.02997 9.12454 6.06667 9.18458 6.11338 9.18458Z" fill="white" stroke="#231F20" stroke-width="0.3" stroke-miterlimit="10"/>
<path d="M4.86607 9.18458H5.07626C5.12297 9.18458 5.15967 9.12454 5.15967 9.04812V4.70872C5.15967 4.63231 5.12297 4.57227 5.07626 4.57227H4.86607C4.81936 4.57227 4.78266 4.63231 4.78266 4.70872V9.04812C4.78266 9.12454 4.81936 9.18458 4.86607 9.18458Z" fill="white" stroke="#231F20" stroke-width="0.3" stroke-miterlimit="10"/>
<path d="M3.61607 9.18458H3.82626C3.87297 9.18458 3.90967 9.12454 3.90967 9.04812V4.70872C3.90967 4.63231 3.87297 4.57227 3.82626 4.57227H3.61607C3.56936 4.57227 3.53266 4.63231 3.53266 4.70872V9.04812C3.53266 9.12454 3.56936 9.18458 3.61607 9.18458Z" fill="white" stroke="#231F20" stroke-width="0.3" stroke-miterlimit="10"/>
<path d="M2.3668 9.18458H2.57699C2.6237 9.18458 2.6604 9.12454 2.6604 9.04812V4.70872C2.6604 4.63231 2.6237 4.57227 2.57699 4.57227H2.3668C2.32009 4.57227 2.28339 4.63231 2.28339 4.70872V9.04812C2.28339 9.12454 2.32176 9.18458 2.3668 9.18458Z" fill="white" stroke="#231F20" stroke-width="0.3" stroke-miterlimit="10"/>
<path d="M1.11851 9.18458H1.3287C1.37541 9.18458 1.41211 9.12454 1.41211 9.04812V4.70872C1.41211 4.63231 1.37541 4.57227 1.3287 4.57227H1.11851C1.0718 4.57227 1.0351 4.63231 1.0351 4.70872V9.04812C1.0351 9.12454 1.0718 9.18458 1.11851 9.18458Z" fill="white" stroke="#231F20" stroke-width="0.3" stroke-miterlimit="10"/>
<rect x="0.311377" y="10.1139" width="6.8065" height="0.680207" fill="#176CF7" stroke="black" stroke-width="0.3"/>
<path d="M5.18566 12.3408C4.51437 12.3408 3.96873 11.8153 3.96873 11.1692C3.96873 10.5213 4.51265 9.99756 5.18566 9.99756C5.85695 9.99756 6.40259 10.5231 6.40259 11.1692C6.40259 11.817 5.85695 12.3408 5.18566 12.3408Z" fill="#183E7F" stroke="#231F20" stroke-width="0.3" stroke-miterlimit="10"/>
<path d="M5.18552 11.8325C4.80512 11.8325 4.49702 11.5362 4.49702 11.1692C4.49702 10.8022 4.80512 10.5059 5.18552 10.5059C5.56592 10.5059 5.87402 10.8022 5.87402 11.1692C5.87402 11.5362 5.56592 11.8325 5.18552 11.8325Z" fill="#307CFE" stroke="#231F20" stroke-width="0.3" stroke-miterlimit="10"/>
</svg>
